<svg width="24" height="24" viewBox="0 0 24 24" fill="none" xmlns="http://www.w3.org/2000/svg">
<path d="M12 0C9.62663 0 7.30655 0.703788 5.33316 2.02236C3.35977 3.34094 1.8217 5.21508 0.913451 7.4078C0.00519943 9.60051 -0.232441 12.0133 0.230582 14.3411C0.693605 16.6689 1.83649 18.807 3.51472 20.4853C5.19295 22.1635 7.33115 23.3064 9.65892 23.7694C11.9867 24.2324 14.3995 23.9948 16.5922 23.0865C18.7849 22.1783 20.6591 20.6402 21.9776 18.6668C23.2962 16.6934 24 14.3734 24 12C23.9965 8.81847 22.7311 5.76826 20.4814 3.51858C18.2317 1.2689 15.1815 0.00349392 12 0ZM16.4484 10.4484L11.6484 15.2484C11.4234 15.4734 11.1182 15.5997 10.8 15.5997C10.4818 15.5997 10.1766 15.4734 9.9516 15.2484L7.5516 12.8484C7.33301 12.6221 7.21206 12.319 7.2148 12.0043C7.21753 11.6897 7.34373 11.3887 7.56622 11.1662C7.78871 10.9437 8.08969 10.8175 8.40432 10.8148C8.71896 10.8121 9.02208 10.933 9.2484 11.1516L10.8 12.7032L14.7516 8.7516C14.9779 8.53301 15.281 8.41206 15.5957 8.41479C15.9103 8.41752 16.2113 8.54373 16.4338 8.76622C16.6563 8.9887 16.7825 9.28968 16.7852 9.60432C16.7879 9.91895 16.667 10.2221 16.4484 10.4484Z" fill="#9E2B86"/>
</svg>
