<svg width="26" height="26" viewBox="0 0 26 26" fill="none" xmlns="http://www.w3.org/2000/svg">
<g clip-path="url(#clip0_10492_862)">
<path d="M26 13C26 15.9343 25.0279 18.6425 23.3878 20.818C23.0185 21.3073 22.6163 21.7694 22.1833 22.2014C20.9661 23.4165 19.509 24.3912 17.8896 25.0492C17.3224 25.2795 16.7345 25.4715 16.1307 25.6201C15.1277 25.8684 14.0793 26 13 26C11.9202 26 10.8717 25.8684 9.86888 25.6201C9.26504 25.471 8.67715 25.2795 8.10992 25.0486C6.4905 24.3912 5.03395 23.4165 3.81672 22.2014C3.38376 21.7695 2.98101 21.3067 2.61224 20.8175C0.972106 18.642 0 15.9343 0 13C0 5.82029 5.82029 0 13 0C20.1797 0 26 5.82029 26 13Z" fill="#9E2B86"/>
<path d="M23.3878 20.818C23.0185 21.3073 22.6163 21.7694 22.1833 22.2014L19.4051 22.6869L17.8896 25.0492C17.3224 25.2795 16.7345 25.4715 16.1307 25.6201L13 20.9104L9.86889 25.6201C9.26505 25.471 8.67716 25.2794 8.10993 25.0486L6.59452 22.6868L3.81679 22.2013C3.38382 21.7694 2.98108 21.3067 2.6123 20.8175L5.48241 16.4999L9.19828 10.9099L13 13.4372L16.8013 10.91L20.5172 16.5L21.5514 18.0557L23.3878 20.818Z" fill="#FF526C"/>
<path d="M20.5172 16.4999C18.9073 18.9396 16.1412 20.549 13 20.549C9.85827 20.549 7.09217 18.9396 5.4823 16.4999L9.19817 10.9099L13 13.4372L16.8013 10.91L20.5172 16.4999Z" fill="#E83150"/>
<path d="M13 18.5326C17.971 18.5326 22.0008 14.5028 22.0008 9.53178C22.0008 4.56079 17.971 0.531006 13 0.531006C8.02905 0.531006 3.99927 4.56079 3.99927 9.53178C3.99927 14.5028 8.02905 18.5326 13 18.5326Z" fill="#FFE261"/>
<path d="M12.9998 2.43237C12.7583 2.43237 12.5196 2.44456 12.2842 2.46807C15.8689 2.82694 18.6677 5.85234 18.6677 9.53159C18.6677 13.2108 15.8689 16.2362 12.2842 16.5951C12.5196 16.6187 12.7582 16.6308 12.9998 16.6308C16.9207 16.6308 20.0991 13.4524 20.0991 9.53159C20.0991 5.61077 16.9206 2.43237 12.9998 2.43237Z" fill="#F58D2C"/>
<path d="M14.0735 22.5247L14.5127 23.1885L21.7704 18.3866L21.3312 17.7228L14.0735 22.5247Z" fill="#FFE261"/>
<path d="M4.2211 18.3873L11.4788 23.1892L11.918 22.5254L4.6603 17.7235L4.2211 18.3873Z" fill="#FFE261"/>
<path d="M13.297 5.08108L13.8756 7.38076C13.9392 7.50939 14.0619 7.59857 14.2038 7.61923L16.4749 7.94921C16.8324 8.00116 16.9752 8.44052 16.7165 8.69265L15.0731 10.2945C14.9703 10.3946 14.9235 10.5389 14.9477 10.6803L15.8273 13.4338C15.8273 13.4338 15.023 13.5698 14.7033 13.4016L12.672 12.3337C12.545 12.267 12.3933 12.267 12.2663 12.3337L10.7489 13.445C10.4291 13.613 9.54152 13.2982 9.60261 12.9422L9.99053 10.6803C10.0148 10.5388 9.96793 10.3946 9.8652 10.2945L8.22182 8.69265C7.96314 8.44052 8.10588 8.00116 8.46333 7.94921L10.7344 7.61923C10.8764 7.59862 10.9991 7.50944 11.0626 7.38076L12.0782 5.32285C12.2382 4.99892 13.297 5.08108 13.297 5.08108Z" fill="#F58D2C"/>
<path d="M13.656 5.32303L14.6716 7.38094C14.7351 7.50957 14.8578 7.59874 14.9998 7.61941L17.2709 7.94938C17.6284 8.00133 17.7712 8.44069 17.5124 8.69282L15.869 10.2947C15.7663 10.3948 15.7194 10.5391 15.7437 10.6804L16.1316 12.9423C16.1927 13.2984 15.819 13.5699 15.4993 13.4018L13.468 12.3339C13.341 12.2672 13.1893 12.2672 13.0623 12.3339L11.031 13.4018C10.7112 13.5699 10.3375 13.2984 10.3986 12.9423L10.7865 10.6804C10.8108 10.539 10.764 10.3948 10.6612 10.2947L9.01784 8.69282C8.75916 8.44069 8.9019 8.00133 9.25935 7.94938L11.5304 7.61941C11.6724 7.59879 11.7951 7.50962 11.8586 7.38094L12.8743 5.32303C13.0342 4.99909 13.4961 4.99909 13.656 5.32303Z" fill="#FCCF67"/>
</g>
<defs>
<clipPath id="clip0_10492_862">
<rect width="26" height="26" fill="white"/>
</clipPath>
</defs>
</svg>
