<svg width="42" height="42" viewBox="0 0 42 42" fill="none" xmlns="http://www.w3.org/2000/svg">
<path d="M34.125 1.3125H7.875C6.13473 1.3132 4.46594 2.00482 3.23538 3.23538C2.00482 4.46594 1.3132 6.13473 1.3125 7.875V34.125C1.3132 35.8653 2.00482 37.5341 3.23538 38.7646C4.46594 39.9952 6.13473 40.6868 7.875 40.6875H13.125V24.9375H10.7362C9.90415 24.9376 9.09075 24.6907 8.39912 24.2281C7.70749 23.7654 7.16878 23.1079 6.85125 22.3388C6.54125 21.5862 6.46561 20.7577 6.63422 19.9615C6.80282 19.1653 7.20783 18.4385 7.79625 17.8762L18.06 7.77C18.4453 7.38354 18.9037 7.07772 19.4085 6.87039C19.9133 6.66307 20.4543 6.5584 21 6.5625C22.0968 6.55651 23.1522 6.98058 23.94 7.74375L34.2038 17.8762C34.7922 18.4385 35.1972 19.1653 35.3658 19.9615C35.5344 20.7577 35.4587 21.5862 35.1488 22.3388C34.8312 23.1079 34.2925 23.7654 33.6009 24.2281C32.9093 24.6907 32.0958 24.9376 31.2638 24.9375H28.875V40.6875H34.125C35.8653 40.6868 37.5341 39.9952 38.7646 38.7646C39.9952 37.5341 40.6868 35.8653 40.6875 34.125V7.875C40.6868 6.13473 39.9952 4.46594 38.7646 3.23538C37.5341 2.00482 35.8653 1.3132 34.125 1.3125Z" fill="#E96E32"/>
<path d="M15.75 40.6878H26.25V23.6253C26.2483 23.4525 26.2811 23.281 26.3464 23.121C26.4118 22.961 26.5084 22.8156 26.6306 22.6934C26.7528 22.5712 26.8982 22.4746 27.0582 22.4092C27.2182 22.3439 27.3897 22.3111 27.5625 22.3128H31.2638C31.5745 22.3163 31.8789 22.2253 32.1367 22.0518C32.3946 21.8784 32.5936 21.6307 32.7075 21.3416C32.8178 21.0755 32.8443 20.7821 32.7833 20.5007C32.7223 20.2192 32.5768 19.9631 32.3662 19.7666L22.1025 9.63405C21.8028 9.35581 21.409 9.20117 21 9.20117C20.591 9.20117 20.1972 9.35581 19.8975 9.63405L9.63375 19.7666C9.49659 19.8946 9.38645 20.0489 9.30981 20.2202C9.23317 20.3915 9.19158 20.5764 9.1875 20.7641C9.19465 20.9606 9.23001 21.1551 9.2925 21.3416C9.40638 21.6307 9.60542 21.8784 9.86325 22.0518C10.1211 22.2253 10.4255 22.3163 10.7363 22.3128H14.4375C14.6103 22.3111 14.7818 22.3439 14.9418 22.4092C15.1018 22.4746 15.2472 22.5712 15.3694 22.6934C15.4916 22.8156 15.5882 22.961 15.6536 23.121C15.7189 23.281 15.7517 23.4525 15.75 23.6253V40.6878Z" fill="#E96E32"/>
<path d="M26.25 38.0615V23.624C26.2483 23.4512 26.2811 23.2797 26.3464 23.1197C26.4118 22.9597 26.5084 22.8143 26.6306 22.6921C26.7528 22.5699 26.8982 22.4733 27.0582 22.4079C27.2182 22.3426 27.3897 22.3098 27.5625 22.3115H31.2638C31.5745 22.315 31.8789 22.224 32.1367 22.0505C32.3946 21.8771 32.5936 21.6294 32.7075 21.3403C32.8178 21.0743 32.8443 20.7809 32.7833 20.4994C32.7223 20.2179 32.5768 19.9618 32.3663 19.7653L22.1025 9.63278C21.8063 9.34898 21.4102 9.19328 21 9.19939V40.6865H26.25V38.0615Z" fill="#E96E32" fill-opacity="0.5"/>
<path d="M34.125 1.3125H21V6.5625C22.0968 6.55651 23.1522 6.98058 23.94 7.74375L34.2037 17.8762C34.7922 18.4385 35.1972 19.1653 35.3658 19.9615C35.5344 20.7577 35.4587 21.5862 35.1488 22.3388C34.8312 23.1079 34.2925 23.7654 33.6009 24.2281C32.9093 24.6907 32.0958 24.9376 31.2638 24.9375H28.875V40.6875H34.125C35.8653 40.6868 37.5341 39.9952 38.7646 38.7646C39.9952 37.5341 40.6868 35.8653 40.6875 34.125V7.875C40.6868 6.13473 39.9952 4.46594 38.7646 3.23538C37.5341 2.00482 35.8653 1.3132 34.125 1.3125Z" fill="#E96E32" fill-opacity="0.5"/>
</svg>
